<svg xmlns="http://www.w3.org/2000/svg" xmlns:xlink="http://www.w3.org/1999/xlink" width="1080" zoomAndPan="magnify" viewBox="0 0 810 809.999993" height="1080" preserveAspectRatio="xMidYMid meet" version="1.0"><defs><clipPath id="c546fb71f3"><path d="M 370 238 L 727 238 L 727 764.015625 L 370 764.015625 Z M 370 238 " clip-rule="nonzero"/></clipPath><clipPath id="8354eb6977"><path d="M 617 69.277344 L 727 69.277344 L 727 179 L 617 179 Z M 617 69.277344 " clip-rule="nonzero"/></clipPath><clipPath id="6208559477"><path d="M 81 69.277344 L 572 69.277344 L 572 764.015625 L 81 764.015625 Z M 81 69.277344 " clip-rule="nonzero"/></clipPath><clipPath id="1d2628cc01"><path d="M 411 225.402344 L 542 225.402344 L 542 356 L 411 356 Z M 411 225.402344 " clip-rule="nonzero"/></clipPath><clipPath id="48937152f6"><path d="M 212.375 342 L 312 342 L 312 486 L 212.375 486 Z M 212.375 342 " clip-rule="nonzero"/></clipPath><clipPath id="9c84df21b9"><path d="M 285 465 L 523 465 L 523 607.507812 L 285 607.507812 Z M 285 465 " clip-rule="nonzero"/></clipPath><clipPath id="aeec6d54aa"><path d="M 495 342 L 594.480469 342 L 594.480469 486 L 495 486 Z M 495 342 " clip-rule="nonzero"/></clipPath><clipPath id="77a2755c47"><path d="M 265 225.402344 L 396 225.402344 L 396 356 L 265 356 Z M 265 225.402344 " clip-rule="nonzero"/></clipPath><clipPath id="3a06dd24fd"><path d="M 625 141 L 700 141 L 700 183 L 625 183 Z M 625 141 " clip-rule="nonzero"/></clipPath><clipPath id="b6c1f3c4c8"><path d="M 590.546875 72.617188 L 771.148438 69.296875 L 774.339844 242.953125 L 593.738281 246.273438 Z M 590.546875 72.617188 " clip-rule="nonzero"/></clipPath><clipPath id="c168641301"><path d="M 590.546875 72.617188 L 771.148438 69.296875 L 774.40625 246.425781 L 593.800781 249.746094 Z M 590.546875 72.617188 " clip-rule="nonzero"/></clipPath><clipPath id="bf4a3333b5"><path d="M 641 98 L 682 98 L 682 139 L 641 139 Z M 641 98 " clip-rule="nonzero"/></clipPath><clipPath id="8530737c11"><path d="M 590.546875 72.617188 L 771.148438 69.296875 L 774.339844 242.953125 L 593.738281 246.273438 Z M 590.546875 72.617188 " clip-rule="nonzero"/></clipPath><clipPath id="197e9052ba"><path d="M 590.546875 72.617188 L 771.148438 69.296875 L 774.40625 246.425781 L 593.800781 249.746094 Z M 590.546875 72.617188 " clip-rule="nonzero"/></clipPath><clipPath id="6ea0bf15d1"><path d="M 597 71 L 775 71 L 775 245 L 597 245 Z M 597 71 " clip-rule="nonzero"/></clipPath><clipPath id="ba5e7d6e34"><path d="M 590.546875 72.617188 L 771.148438 69.296875 L 774.339844 242.953125 L 593.738281 246.273438 Z M 590.546875 72.617188 " clip-rule="nonzero"/></clipPath><clipPath id="f4056e2156"><path d="M 590.546875 72.617188 L 771.148438 69.296875 L 774.40625 246.425781 L 593.800781 249.746094 Z M 590.546875 72.617188 " clip-rule="nonzero"/></clipPath></defs><g clip-path="url(#c546fb71f3)"><path fill="#7e1e9b" d="M 726.152344 238.289062 L 726.152344 764.015625 L 370.398438 764.015625 L 370.398438 655.078125 L 617.203125 655.078125 L 617.203125 238.289062 Z M 726.152344 238.289062 " fill-opacity="1" fill-rule="evenodd"/></g><g clip-path="url(#8354eb6977)"><path fill="#fff9f9" d="M 617.203125 69.277344 L 726.152344 69.277344 L 726.152344 178.222656 L 617.203125 178.222656 Z M 617.203125 69.277344 " fill-opacity="1" fill-rule="evenodd"/></g><g clip-path="url(#6208559477)"><path fill="#7e1e9b" d="M 190.066406 69.277344 L 81.117188 69.277344 L 81.117188 764.015625 L 333.855469 764.015625 L 333.855469 655.078125 L 190.066406 655.078125 L 190.066406 178.21875 L 571.570312 178.21875 L 571.570312 69.277344 Z M 190.066406 69.277344 " fill-opacity="1" fill-rule="nonzero"/></g><g clip-path="url(#1d2628cc01)"><path fill="#916edf" d="M 541.3125 290.425781 C 541.3125 326.335938 512.199219 355.445312 476.289062 355.445312 C 440.378906 355.445312 411.265625 326.335938 411.265625 290.425781 C 411.265625 254.511719 440.378906 225.402344 476.289062 225.402344 C 512.199219 225.402344 541.3125 254.511719 541.3125 290.425781 Z M 541.3125 290.425781 " fill-opacity="1" fill-rule="nonzero"/></g><g clip-path="url(#48937152f6)"><path fill="#916edf" d="M 212.375 416.644531 C 212.375 380.972656 236.789062 351.003906 269.820312 342.539062 C 279.519531 353.902344 292.335938 362.53125 306.941406 367.097656 L 297.738281 438.234375 C 296.972656 444.160156 299.015625 450.105469 303.269531 454.300781 L 311.285156 462.210938 C 301.820312 468.414062 293.574219 476.320312 286.976562 485.492188 L 250.621094 485.492188 C 229.5 485.492188 212.375 468.367188 212.375 447.242188 Z M 212.375 416.644531 " fill-opacity="1" fill-rule="nonzero"/></g><path fill="#916edf" d="M 331.488281 452.03125 C 331.488281 452.03125 327.460938 453.757812 325.675781 454.515625 L 314.015625 443.414062 C 313.167969 442.574219 312.757812 441.382812 312.910156 440.199219 L 321.960938 370.25 C 325.363281 370.628906 328.851562 370.792969 332.339844 370.734375 L 333.261719 377.859375 C 326.910156 389.359375 323.296875 402.578125 323.296875 416.644531 C 323.296875 429.34375 326.242188 441.355469 331.488281 452.03125 Z M 331.488281 452.03125 " fill-opacity="1" fill-rule="nonzero"/><g clip-path="url(#9c84df21b9)"><path fill="#916edf" d="M 339.957031 465.632812 C 350.570312 479.402344 365.550781 489.632812 382.824219 494.25 L 374.234375 560.632812 C 373.46875 566.558594 375.515625 572.5 379.765625 576.695312 L 390.183594 586.976562 C 397.628906 594.328125 409.605469 594.328125 417.050781 586.976562 L 427.46875 576.695312 C 431.71875 572.5 433.765625 566.558594 433 560.632812 L 424.410156 494.25 C 441.683594 489.632812 456.664062 479.402344 467.277344 465.632812 C 471.253906 466.796875 475.097656 468.28125 478.777344 470.050781 C 486.84375 473.925781 494.125 479.171875 500.320312 485.492188 C 513.847656 499.289062 522.1875 518.191406 522.1875 539.039062 L 522.1875 569.640625 C 522.1875 590.765625 505.0625 607.886719 483.9375 607.886719 L 323.296875 607.886719 C 302.171875 607.886719 285.046875 590.765625 285.046875 569.640625 L 285.046875 539.039062 C 285.046875 518.191406 293.386719 499.289062 306.914062 485.492188 C 313.109375 479.171875 320.390625 473.925781 328.457031 470.050781 C 332.136719 468.28125 335.980469 466.800781 339.957031 465.632812 Z M 339.957031 465.632812 " fill-opacity="1" fill-rule="nonzero"/></g><path fill="#916edf" d="M 397.925781 496.769531 L 389.40625 562.59375 C 389.253906 563.78125 389.664062 564.96875 390.515625 565.808594 L 400.929688 576.089844 C 402.421875 577.5625 404.8125 577.5625 406.304688 576.089844 L 416.71875 565.808594 C 417.570312 564.96875 417.980469 563.78125 417.824219 562.59375 L 409.308594 496.769531 C 405.546875 497.03125 401.6875 497.03125 397.925781 496.769531 Z M 397.925781 496.769531 " fill-opacity="1" fill-rule="nonzero"/><path fill="#916edf" d="M 475.746094 452.03125 C 480.992188 441.355469 483.9375 429.34375 483.9375 416.644531 C 483.9375 402.578125 480.324219 389.359375 473.972656 377.859375 L 474.894531 370.734375 C 478.382812 370.792969 481.871094 370.628906 485.273438 370.25 L 494.324219 440.199219 C 494.476562 441.382812 494.066406 442.574219 493.21875 443.414062 C 489.925781 446.664062 481.558594 454.515625 481.558594 454.515625 C 479.773438 453.757812 475.746094 452.03125 475.746094 452.03125 Z M 475.746094 452.03125 " fill-opacity="1" fill-rule="nonzero"/><g clip-path="url(#aeec6d54aa)"><path fill="#916edf" d="M 520.257812 485.492188 L 556.613281 485.492188 C 577.738281 485.492188 594.859375 468.367188 594.859375 447.242188 L 594.859375 416.644531 C 594.859375 380.972656 570.445312 351.003906 537.414062 342.539062 C 527.714844 353.902344 514.898438 362.53125 500.292969 367.097656 L 509.496094 438.234375 C 510.261719 444.160156 508.21875 450.105469 503.964844 454.300781 L 495.949219 462.210938 C 505.414062 468.414062 513.660156 476.320312 520.257812 485.492188 Z M 520.257812 485.492188 " fill-opacity="1" fill-rule="nonzero"/></g><g clip-path="url(#77a2755c47)"><path fill="#916edf" d="M 330.945312 355.445312 C 366.855469 355.445312 395.96875 326.335938 395.96875 290.425781 C 395.96875 254.511719 366.855469 225.402344 330.945312 225.402344 C 295.035156 225.402344 265.921875 254.511719 265.921875 290.425781 C 265.921875 326.335938 295.035156 355.445312 330.945312 355.445312 Z M 330.945312 355.445312 " fill-opacity="1" fill-rule="nonzero"/></g><path fill="#916edf" d="M 403.617188 481.667969 C 439.527344 481.667969 468.640625 452.554688 468.640625 416.644531 C 468.640625 380.734375 439.527344 351.621094 403.617188 351.621094 C 367.707031 351.621094 338.59375 380.734375 338.59375 416.644531 C 338.59375 452.554688 367.707031 481.667969 403.617188 481.667969 Z M 403.617188 481.667969 " fill-opacity="1" fill-rule="nonzero"/><g clip-path="url(#3a06dd24fd)"><g clip-path="url(#b6c1f3c4c8)"><g clip-path="url(#c168641301)"><path fill="#000000" d="M 699.773438 160.410156 C 692.730469 173.570312 678.960938 182.628906 662.976562 182.921875 C 646.992188 183.214844 632.898438 174.671875 625.375 161.777344 C 626.753906 158.957031 628.671875 156.332031 631.027344 153.972656 C 632.003906 152.988281 633.058594 152.050781 634.179688 151.175781 C 639.671875 146.855469 646.828125 143.75 654.875 142.460938 C 656.320312 142.226562 657.792969 142.054688 659.285156 141.945312 C 659.671875 141.917969 660.058594 141.894531 660.449219 141.875 L 660.425781 142.023438 L 660.210938 143.246094 L 654.695312 170.027344 L 662.898438 178.78125 L 670.769531 169.730469 L 664.273438 143.171875 L 664.015625 141.957031 L 663.984375 141.8125 C 664.378906 141.816406 664.765625 141.828125 665.152344 141.835938 C 666.648438 141.890625 668.128906 142.011719 669.578125 142.191406 C 677.667969 143.183594 684.929688 146.023438 690.582031 150.140625 C 694.527344 153.003906 697.6875 156.496094 699.773438 160.410156 " fill-opacity="1" fill-rule="nonzero"/></g></g></g><g clip-path="url(#bf4a3333b5)"><g clip-path="url(#8530737c11)"><g clip-path="url(#197e9052ba)"><path fill="#000000" d="M 656.226562 137.816406 C 657.269531 138.125 658.351562 138.347656 659.460938 138.476562 C 660.0625 138.546875 660.671875 138.589844 661.292969 138.605469 C 661.574219 138.617188 661.863281 138.613281 662.15625 138.605469 C 662.453125 138.601562 662.742188 138.597656 663.023438 138.574219 C 663.640625 138.535156 664.25 138.46875 664.847656 138.375 C 665.953125 138.207031 667.027344 137.945312 668.058594 137.601562 C 676.101562 134.933594 681.835938 127.285156 681.671875 118.371094 C 681.46875 107.394531 672.40625 98.660156 661.425781 98.859375 C 650.449219 99.0625 641.714844 108.125 641.917969 119.101562 C 642.082031 128.015625 648.089844 135.449219 656.226562 137.816406 " fill-opacity="1" fill-rule="nonzero"/></g></g></g><g clip-path="url(#6ea0bf15d1)"><g clip-path="url(#ba5e7d6e34)"><g clip-path="url(#f4056e2156)"><path fill="#000000" d="M 661.175781 85.125 C 689.058594 84.613281 712.078125 106.800781 712.589844 134.679688 C 712.753906 143.617188 710.585938 152.058594 706.644531 159.410156 C 698.296875 175.007812 681.980469 185.742188 663.035156 186.09375 C 644.089844 186.441406 627.390625 176.3125 618.476562 161.03125 C 614.261719 153.828125 611.785156 145.472656 611.621094 136.539062 C 611.109375 108.65625 633.296875 85.636719 661.175781 85.125 Z M 773.121094 233.808594 L 712.816406 175.679688 L 715.089844 172.402344 C 715.675781 171.554688 716.246094 170.6875 716.789062 169.808594 L 716.789062 169.804688 C 724.21875 157.898438 727.558594 143.75 726.226562 129.628906 C 724.785156 114.304688 717.894531 99.992188 706.824219 89.324219 C 694.453125 77.398438 678.152344 71.003906 660.921875 71.320312 C 643.691406 71.636719 627.632812 78.625 615.710938 91 C 594.335938 113.171875 592.050781 146.839844 608.496094 171.472656 C 611.011719 175.261719 613.976562 178.828125 617.386719 182.113281 C 619.222656 183.886719 621.152344 185.53125 623.148438 187.054688 C 623.476562 187.300781 623.804688 187.546875 624.128906 187.785156 C 631.230469 192.984375 639.257812 196.628906 647.789062 198.546875 C 652.808594 199.683594 658.007812 200.214844 663.292969 200.117188 C 668.5625 200.019531 673.730469 199.296875 678.710938 197.980469 C 686.621094 195.894531 694.066406 192.300781 700.714844 187.316406 L 702 186.355469 L 703.90625 184.925781 L 764.210938 243.050781 C 765.445312 244.242188 767.070312 244.878906 768.78125 244.847656 C 770.496094 244.816406 772.097656 244.117188 773.285156 242.882812 C 774.476562 241.648438 775.109375 240.023438 775.078125 238.308594 C 775.046875 236.597656 774.355469 234.996094 773.121094 233.808594 " fill-opacity="1" fill-rule="nonzero"/></g></g></g></svg>